<?xml version="1.0" encoding="UTF-8"?>
<svg viewBox="0 0 100 87.5" xmlns="http://www.w3.org/2000/svg">
 <g transform="matrix(.64318 .76571 -.76571 .64318 136.7 -480.02)">
  <path d="m345.36451,353.28704c-7.21477,0-13.0059,2.12052-13.59375,4.84375 .15552.12397.26732.28657.3125.5 .08104.38292-.12678.7134-.4375.90625v9.9375c.48964-.10364.99011.22912 1.09375.71875s-.22912.95886-.71875,1.0625c-.13318.02819-.25179-.03511-.375-.0625v3.375c.11267.11982.24566.23811.28125.40625 .06528.30833-.07022.5753-.28125.78125v12.4375c.12449-.18087.30183-.32644.53125-.375 .48962-.10365.99011.22912 1.09375.71875s-.22912.95886-.71875,1.0625c-.39233.08305-.7177-.14319-.90625-.46875v3.28125c.35218.06403.67227.25778.75.625 .10364.48964-.22912.95886-.71875,1.0625h-.03125v10.4375c.47783-.08403.92989.20864 1.03125.6875 .10363.48965-.19787.99011-.6875,1.09375-.12241.02591-.22636-.03823-.34375-.0625v3.5c.06245.09575.16256.16345.1875.28125 .05713.26992-.03474.51906-.1875.71875v12.15625c.12456-.12823.25458-.27378.4375-.3125 .48963-.10363.95886.22912 1.0625.71875s-.19787.95886-.6875,1.0625c-.32428.06864-.59714-.08878-.8125-.3125v15.375c.46574-.06289.90092.25066 1,.71875 .10365.48964-.19787.95886-.6875,1.0625-.11164.02363-.20708-.04658-.3125-.0625v3.03125c.25938.10855.46762.29312.53125.59375 .08968.42373-.15477.7993-.53125.96875v1.5c0,.89828.69072,1.70467 1.71875,2.4375-.11864-.11808-.24338-.22735-.28125-.40625-.10363-.48963.19787-.95886.6875-1.0625s.95886.19787 1.0625.6875-.19787.95886-.6875,1.0625c-.21055.04456-.4182-.00575-.59375-.09375 1.36609.89611 3.35009,1.62796 5.78125,2.09375 .06734-.34684.25777-.67227.625-.75 .48965-.10365.95886.22912 1.0625.71875 .02135.10087-.05057.18431-.0625.28125 1.40186.18537 2.83762.34375 4.40625.34375 5.72834,0 10.55607-1.36167 12.625-3.28125-.48962.10364-.99011-.22912-1.09375-.71875s.22912-.95886.71875-1.0625 .95886.19787 1.0625.6875c.03047.14395-.02845.27078-.0625.40625 .29373-.43274.5-.87496.5-1.34375v-2.65625c-.0866.05375-.14329.13366-.25.15625-.48964.10363-.99011-.19787-1.09375-.6875s.22912-.99011.71875-1.09375c.22328-.04726.44294.01728.625.125v-3.21875c-.24144-.12539-.44093-.34591-.5-.625-.08506-.40189.15163-.75398.5-.9375v-15.84375c-.35696-.05391-.66999-.24701-.75-.625-.10364-.48963.19787-.95886.6875-1.0625h.0625v-11.09375c-.08469.05098-.14976.13503-.25.15625-.48964.10363-.95886-.22912-1.0625-.71875s.19787-.95886.6875-1.0625c.22328-.04726.43587.02435.625.125v-3.125c-.37858-.05105-.73021-.26748-.8125-.65625-.10364-.48964.22912-.95886.71875-1.0625 .03427-.00726.05979.03461.09375.03125v-11.40625c-.1206.13557-.24781.27235-.4375.3125-.48962.10363-.99011-.22912-1.09375-.71875s.22912-.95886.71875-1.0625c.32642-.06909.60649.08577.8125.3125v-3c-.10982-.11409-.24625-.20964-.28125-.375-.06493-.30672.0724-.56624.28125-.78125v-12.15625c-.12434.16254-.28029.29724-.5.34375-.48962.10365-.95886-.19787-1.0625-.6875s.19787-.99011.6875-1.09375c.37183-.0787.67788.13528.875.4375v-3.5c-.34339-.06403-.64102-.25778-.71875-.625-.10364-.48964.19787-.99011.6875-1.09375h.03125v-9.71875c0-1.69454-2.18587-3.13039-5.375-4.09375-.12008.21719-.29614.38112-.5625.4375-.48962.10364-.95886-.19787-1.0625-.6875-.01181-.05582.03286-.10147.03125-.15625-2.03246-.45313-4.25361-.78125-6.78125-.78125zm3.59375.59375c.48962-.10365.95886.19787 1.0625.6875s-.19787.95886-.6875,1.0625-.99011-.19787-1.09375-.6875 .22912-.95886.71875-1.0625zm-3.53125.75c.48965-.10364.95886.19787 1.0625.6875s-.19787.95886-.6875,1.0625-.99011-.19787-1.09375-.6875 .22912-.95886.71875-1.0625zm-3.53125.75c.48965-.10364.95886.19787 1.0625.6875s-.19787.95886-.6875,1.0625-.99011-.19787-1.09375-.6875 .22912-.95886.71875-1.0625zm-3.53125.71875c.48962-.10365.95886.22912 1.0625.71875s-.19787.95886-.6875,1.0625-.99011-.19787-1.09375-.6875 .22912-.99011.71875-1.09375zm-3.53125.75c.48962-.10363.95886.22912 1.0625.71875s-.19787.95886-.6875,1.0625-.99011-.19787-1.09375-.6875 .22912-.99011.71875-1.09375zm20.28125.03125c.48964-.10363.99011.22912 1.09375.71875s-.22912.95886-.71875,1.0625-.95886-.19787-1.0625-.6875 .19787-.99011.6875-1.09375zm-3.53125.75c.48963-.10364.99011.22912 1.09375.71875s-.19787.95886-.6875,1.0625-.99011-.19787-1.09375-.6875 .19787-.99011.6875-1.09375zm-3.5.75c.48963-.10364.95886.22912 1.0625.71875s-.19787.95886-.6875,1.0625-.99011-.19787-1.09375-.6875 .22912-.99011.71875-1.09375zm-3.53125.75c.48964-.10364.95886.19787 1.0625.6875s-.19787.99011-.6875,1.09375-.99011-.22912-1.09375-.71875 .22912-.95886.71875-1.0625zm-3.53125.75c.48964-.10365.95886.19787 1.0625.6875s-.19787.99011-.6875,1.09375-.99011-.22912-1.09375-.71875 .22912-.95886.71875-1.0625zm16.65625,0c.48965-.10365.99011.19787 1.09375.6875s-.22912.95886-.71875,1.0625-.95886-.19787-1.0625-.6875 .19787-.95886.6875-1.0625zm-20.1875.75c.48964-.10364.95886.19787 1.0625.6875s-.19787.99011-.6875,1.09375-.99011-.22912-1.09375-.71875 .22912-.95886.71875-1.0625zm16.75.15625c.48963-.10365.95886.19787 1.0625.6875s-.19787.95886-.6875,1.0625-.99011-.19787-1.09375-.6875 .22912-.95886.71875-1.0625zm-20.28125.59375c.48964-.10364.95886.19787 1.0625.6875s-.19787.99011-.6875,1.09375-.99011-.22912-1.09375-.71875 .22912-.95886.71875-1.0625zm16.375.40625c.48962-.10363.99011.19787 1.09375.6875s-.22912.99011-.71875,1.09375-.95886-.22912-1.0625-.71875 .19787-.95886.6875-1.0625zm-3.53125.75c.48962-.10364.99011.19787 1.09375.6875s-.22912.99011-.71875,1.09375-.95886-.22912-1.0625-.71875 .19787-.95886.6875-1.0625zm-3.53125.75c.48963-.10365.99011.19787 1.09375.6875s-.22912.95886-.71875,1.0625-.95886-.19787-1.0625-.6875 .19787-.95886.6875-1.0625zm-3.53125.75c.48963-.10364.99011.19787 1.09375.6875s-.22912.95886-.71875,1.0625-.95886-.19787-1.0625-.6875 .19787-.95886.6875-1.0625zm16.625.21875c.48964-.10364.99011.19787 1.09375.6875s-.22912.99011-.71875,1.09375-.95886-.22912-1.0625-.71875 .19787-.95886.6875-1.0625zm-20.15625.53125c.48963-.10363.99011.19787 1.09375.6875s-.22912.95886-.71875,1.0625-.95886-.19787-1.0625-.6875 .19787-.95886.6875-1.0625zm16.625.21875c.48964-.10363.99011.19787 1.09375.6875s-.22912.99011-.71875,1.09375-.95886-.22912-1.0625-.71875 .19787-.95886.6875-1.0625zm-20.15625.5c.48962-.10365.99011.22912 1.09375.71875s-.22912.95886-.71875,1.0625-.95886-.19787-1.0625-.6875 .19787-.99011.6875-1.09375zm16.625.25c.48964-.10365.99011.19787 1.09375.6875s-.22912.99011-.71875,1.09375-.95886-.22912-1.0625-.71875 .19787-.95886.6875-1.0625zm-3.53125.75c.48964-.10364.99011.19787 1.09375.6875s-.22912.99011-.71875,1.09375-.95886-.22912-1.0625-.71875 .19787-.95886.6875-1.0625zm-3.53125.75c.48963-.10364.99011.19787 1.09375.6875s-.22912.95886-.71875,1.0625-.95886-.19787-1.0625-.6875 .19787-.95886.6875-1.0625zm-3.53125.75c.48964-.10363.99011.19787 1.09375.6875s-.22912.95886-.71875,1.0625-.95886-.19787-1.0625-.6875 .19787-.95886.6875-1.0625zm-3.53125.71875c.48964-.10364.99011.22912 1.09375.71875s-.22912.95886-.71875,1.0625-.95886-.19787-1.0625-.6875 .19787-.99011.6875-1.09375zm20.375.3125c.48965-.10364.95886.19787 1.0625.6875s-.19787.99011-.6875,1.09375-.95886-.19787-1.0625-.6875 .19787-.99011.6875-1.09375zm-3.53125.75c.48962-.10366.95886.19787 1.0625.6875s-.19787.99011-.6875,1.09375-.95886-.22912-1.0625-.71875 .19787-.95886.6875-1.0625zm-3.53125.75c.48962-.10363.95886.19787 1.0625.6875s-.19787.99011-.6875,1.09375-.95886-.22912-1.0625-.71875 .19787-.95886.6875-1.0625zm-3.53125.75c.48962-.10364.95886.19787 1.0625.6875s-.19787.99011-.6875,1.09375-.95886-.22912-1.0625-.71875 .19787-.95886.6875-1.0625zm-3.53125.75c.48965-.10364.95886.19787 1.0625.6875s-.19787.99011-.6875,1.09375-.95886-.22912-1.0625-.71875 .19787-.95886.6875-1.0625zm-3.53125.75c.48965-.10366.95886.19787 1.0625.6875s-.19787.95886-.6875,1.0625-.95886-.19787-1.0625-.6875 .19787-.95886.6875-1.0625zm-3.53125.75c.48965-.10365.99011.19787 1.09375.6875s-.22912.95886-.71875,1.0625-.95886-.19787-1.0625-.6875 .19787-.95886.6875-1.0625zm20.34375.28125c.48963-.10364.95886.22912 1.0625.71875s-.19787.95886-.6875,1.0625-.95886-.19787-1.0625-.6875 .19787-.99011.6875-1.09375zm-3.53125.75c.48962-.10363.95886.22912 1.0625.71875s-.19787.95886-.6875,1.0625-.95886-.19787-1.0625-.6875 .19787-.99011.6875-1.09375zm-3.53125.75c.48962-.10365.95886.22912 1.0625.71875s-.19787.95886-.6875,1.0625-.95886-.19787-1.0625-.6875 .19787-.99011.6875-1.09375zm-3.53125.75c.48963-.10365.95886.19787 1.0625.6875s-.19787.99011-.6875,1.09375-.95886-.22912-1.0625-.71875 .19787-.95886.6875-1.0625zm-3.53125.75c.48963-.10364.95886.19787 1.0625.6875s-.19787.99011-.6875,1.09375-.95886-.22912-1.0625-.71875 .19787-.95886.6875-1.0625zm-3.53125.75c.48963-.10363.99011.19787 1.09375.6875s-.22912.99011-.71875,1.09375-.95886-.22912-1.0625-.71875 .19787-.95886.6875-1.0625zm20.6875.25c.48964-.10365.95886.19787 1.0625.6875s-.19787.95886-.6875,1.0625-.99011-.19787-1.09375-.6875 .22912-.95886.71875-1.0625zm-24.21875.5c.48963-.10365.99011.19787 1.09375.6875s-.22912.99011-.71875,1.09375-.95886-.22912-1.0625-.71875 .19787-.95886.6875-1.0625zm20.6875.21875c.48964-.10365.95886.22912 1.0625.71875s-.19787.95886-.6875,1.0625-.95886-.19787-1.0625-.6875 .19787-.99011.6875-1.09375zm-3.53125.75c.48964-.10366.95886.22912 1.0625.71875s-.19787.95886-.6875,1.0625-.95886-.19787-1.0625-.6875 .19787-.99011.6875-1.09375zm-3.53125.75c.48964-.10365.95886.22912 1.0625.71875s-.19787.95886-.6875,1.0625-.95886-.19787-1.0625-.6875 .19787-.99011.6875-1.09375zm-3.53125.75c.48964-.10364.95886.22912 1.0625.71875s-.19787.95886-.6875,1.0625-.95886-.19787-1.0625-.6875 .19787-.99011.6875-1.09375zm-3.53125.75c.48964-.10363.95886.19787 1.0625.6875s-.19787.99011-.6875,1.09375-.95886-.19787-1.0625-.6875 .19787-.99011.6875-1.09375zm-3.53125.75c.48963-.10365.99011.19787 1.09375.6875s-.22912.99011-.71875,1.09375-.95886-.22912-1.0625-.71875 .19787-.95886.6875-1.0625zm20.34375.3125c.48962-.10363.95886.19787 1.0625.6875s-.19787.99011-.6875,1.09375-.95886-.22912-1.0625-.71875 .19787-.95886.6875-1.0625zm-23.875.4375c.48964-.10364.99011.19787 1.09375.6875s-.22912.99011-.71875,1.09375-.95886-.22912-1.0625-.71875 .19787-.95886.6875-1.0625zm20.34375.3125c.48962-.10365.95886.19787 1.0625.6875s-.19787.95886-.6875,1.0625-.95886-.19787-1.0625-.6875 .19787-.95886.6875-1.0625zm-3.53125.75c.48962-.10365.95886.19787 1.0625.6875s-.19787.95886-.6875,1.0625-.95886-.19787-1.0625-.6875 .19787-.95886.6875-1.0625zm-3.53125.75c.48965-.10363.95886.19787 1.0625.6875s-.19787.95886-.6875,1.0625-.95886-.19787-1.0625-.6875 .19787-.95886.6875-1.0625zm-3.53125.71875c.48965-.10364.95886.22912 1.0625.71875s-.19787.95886-.6875,1.0625-.95886-.19787-1.0625-.6875 .19787-.99011.6875-1.09375zm-3.53125.75c.48965-.10365.99011.22912 1.09375.71875s-.22912.95886-.71875,1.0625-.95886-.19787-1.0625-.6875 .19787-.99011.6875-1.09375zm-3.53125.75c.48964-.10364.99011.22912 1.09375.71875s-.22912.95886-.71875,1.0625-.95886-.19787-1.0625-.6875 .19787-.99011.6875-1.09375zm20.3125.03125c.48964-.10365.95886.22912 1.0625.71875s-.19787.95886-.6875,1.0625-.99011-.19787-1.09375-.6875 .22912-.99011.71875-1.09375zm-3.53125.75c.48963-.10365.95886.22912 1.0625.71875s-.19787.95886-.6875,1.0625-.95886-.19787-1.0625-.6875 .19787-.99011.6875-1.09375zm-3.53125.75c.48963-.10363.95886.19787 1.0625.6875s-.19787.99011-.6875,1.09375-.95886-.22912-1.0625-.71875 .19787-.95886.6875-1.0625zm-3.53125.75c.48963-.10365.95886.19787 1.0625.6875s-.19787.99011-.6875,1.09375-.95886-.22912-1.0625-.71875 .19787-.95886.6875-1.0625zm-3.53125.75c.48964-.10365.95886.19787 1.0625.6875s-.19787.99011-.6875,1.09375-.95886-.22912-1.0625-.71875 .19787-.95886.6875-1.0625zm-3.53125.75c.48964-.10364.95886.19787 1.0625.6875s-.19787.99011-.6875,1.09375-.95886-.22912-1.0625-.71875 .19787-.95886.6875-1.0625zm16.40625.40625c.48962-.10365.95886.19787 1.0625.6875s-.19787.99011-.6875,1.09375-.99011-.22912-1.09375-.71875 .22912-.95886.71875-1.0625zm-19.9375.34375c.48964-.10363.95886.19787 1.0625.6875s-.19787.95886-.6875,1.0625-.95886-.19787-1.0625-.6875 .19787-.95886.6875-1.0625zm16.40625.40625c.48962-.10363.95886.19787 1.0625.6875s-.19787.99011-.6875,1.09375-.99011-.22912-1.09375-.71875 .22912-.95886.71875-1.0625zm-3.53125.75c.48962-.10365.95886.19787 1.0625.6875s-.19787.95886-.6875,1.0625-.99011-.19787-1.09375-.6875 .22912-.95886.71875-1.0625zm-3.53125.75c.48962-.10364.95886.19787 1.0625.6875s-.19787.95886-.6875,1.0625-.99011-.19787-1.09375-.6875 .22912-.95886.71875-1.0625zm-3.53125.75c.48962-.10363.95886.19787 1.0625.6875s-.19787.95886-.6875,1.0625-.99011-.19787-1.09375-.6875 .22912-.95886.71875-1.0625zm16.5.28125c.48963-.10365.95886.19787 1.0625.6875s-.19787.95886-.6875,1.0625-.99011-.19787-1.09375-.6875 .22912-.95886.71875-1.0625zm-20.03125.4375c.48963-.10365.95886.22912 1.0625.71875s-.19787.95886-.6875,1.0625-.99011-.19787-1.09375-.6875 .22912-.99011.71875-1.09375zm16.5.28125c.48964-.10364.95886.22912 1.0625.71875s-.19787.95886-.6875,1.0625-.99011-.19787-1.09375-.6875 .22912-.99011.71875-1.09375zm-20.03125.46875c.48962-.10364.95886.22912 1.0625.71875s-.19787.95886-.6875,1.0625-.99011-.19787-1.09375-.6875 .22912-.99011.71875-1.09375zm16.5.28125c.48964-.10363.95886.22912 1.0625.71875s-.19787.95886-.6875,1.0625-.99011-.19787-1.09375-.6875 .22912-.99011.71875-1.09375zm-3.53125.75c.48964-.10365.95886.22912 1.0625.71875s-.19787.95886-.6875,1.0625-.99011-.19787-1.09375-.6875 .22912-.99011.71875-1.09375zm-3.53125.75c.48964-.10365.95886.22912 1.0625.71875s-.19787.95886-.6875,1.0625-.99011-.19787-1.09375-.6875 .22912-.99011.71875-1.09375zm-3.53125.75c.48963-.10363.95886.19787 1.0625.6875s-.19787.99011-.6875,1.09375-.95886-.19787-1.0625-.6875 .19787-.99011.6875-1.09375zm-3.53125.75c.48963-.10365.95886.19787 1.0625.6875s-.19787.99011-.6875,1.09375-.95886-.22912-1.0625-.71875 .19787-.95886.6875-1.0625zm20.34375.3125c.48965-.10364.99011.19787 1.09375.6875s-.22912.95886-.71875,1.0625-.95886-.19787-1.0625-.6875 .19787-.95886.6875-1.0625zm-23.875.4375c.48963-.10365.95886.19787 1.0625.6875s-.19787.99011-.6875,1.09375-.95886-.22912-1.0625-.71875 .19787-.95886.6875-1.0625zm20.375.3125c.48965-.10364.95886.19787 1.0625.6875s-.19787.95886-.6875,1.0625-.99011-.19787-1.09375-.6875 .22912-.95886.71875-1.0625zm-3.53125.71875c.48965-.10363.95886.22912 1.0625.71875s-.19787.95886-.6875,1.0625-.99011-.19787-1.09375-.6875 .22912-.99011.71875-1.09375zm-3.53125.75c.48964-.10363.95886.22912 1.0625.71875s-.19787.95886-.6875,1.0625-.99011-.19787-1.09375-.6875 .22912-.99011.71875-1.09375zm-3.53125.75c.48964-.10364.95886.22912 1.0625.71875s-.19787.95886-.6875,1.0625-.99011-.19787-1.09375-.6875 .22912-.99011.71875-1.09375zm-3.53125.75c.48964-.10363.95886.22912 1.0625.71875s-.19787.95886-.6875,1.0625-.99011-.19787-1.09375-.6875 .22912-.99011.71875-1.09375zm-3.53125.75c.48964-.10363.95886.19787 1.0625.6875s-.19787.99011-.6875,1.09375-.99011-.19787-1.09375-.6875 .22912-.99011.71875-1.09375zm20.34375.3125c.48963-.10365.95886.19787 1.0625.6875s-.19787.99011-.6875,1.09375-.99011-.22912-1.09375-.71875 .22912-.95886.71875-1.0625zm-3.53125.75c.48963-.10364.95886.19787 1.0625.6875s-.19787.99011-.6875,1.09375-.99011-.22912-1.09375-.71875 .22912-.95886.71875-1.0625zm-3.53125.75c.48963-.10364.95886.19787 1.0625.6875s-.19787.95886-.6875,1.0625-.99011-.19787-1.09375-.6875 .22912-.95886.71875-1.0625zm-3.53125.75c.48962-.10365.95886.19787 1.0625.6875s-.19787.95886-.6875,1.0625-.99011-.19787-1.09375-.6875 .22912-.95886.71875-1.0625zm-3.53125.75c.48962-.10365.95886.19787 1.0625.6875s-.19787.95886-.6875,1.0625-.99011-.19787-1.09375-.6875 .22912-.95886.71875-1.0625zm-3.53125.71875c.48962-.10364.95886.22912 1.0625.71875s-.19787.95886-.6875,1.0625-.99011-.19787-1.09375-.6875 .22912-.99011.71875-1.09375zm-3.53125.75c.48962-.10365.95886.22912 1.0625.71875s-.19787.95886-.6875,1.0625-.99011-.19787-1.09375-.6875 .22912-.99011.71875-1.09375zm20.65625.25c.48963-.10364.99011.19787 1.09375.6875s-.19787.99011-.6875,1.09375-.99011-.22912-1.09375-.71875 .19787-.95886.6875-1.0625zm-3.5.75c.48963-.10363.95886.19787 1.0625.6875s-.19787.99011-.6875,1.09375-.99011-.22912-1.09375-.71875 .22912-.95886.71875-1.0625zm-3.53125.75c.48964-.10363.95886.19787 1.0625.6875s-.19787.99011-.6875,1.09375-.99011-.22912-1.09375-.71875 .22912-.95886.71875-1.0625zm-3.53125.75c.48964-.10365.95886.19787 1.0625.6875s-.19787.99011-.6875,1.09375-.99011-.22912-1.09375-.71875 .22912-.95886.71875-1.0625zm-3.53125.75c.48964-.10363.95886.19787 1.0625.6875s-.19787.95886-.6875,1.0625-.99011-.19787-1.09375-.6875 .22912-.95886.71875-1.0625zm-3.53125.75c.48964-.10363.95886.19787 1.0625.6875s-.19787.95886-.6875,1.0625-.99011-.19787-1.09375-.6875 .22912-.95886.71875-1.0625zm20.34375.28125c.48965-.10363.95886.22912 1.0625.71875s-.19787.95886-.6875,1.0625-.99011-.19787-1.09375-.6875 .22912-.99011.71875-1.09375zm-23.875.4375c.48963-.10365.95886.22912 1.0625.71875s-.19787.95886-.6875,1.0625-.99011-.19787-1.09375-.6875 .22912-.99011.71875-1.09375zm20.34375.3125c.48965-.10363.95886.22912 1.0625.71875s-.19787.95886-.6875,1.0625-.99011-.19787-1.09375-.6875 .22912-.99011.71875-1.09375zm-3.53125.75c.48964-.10365.95886.22912 1.0625.71875s-.19787.95886-.6875,1.0625-.99011-.19787-1.09375-.6875 .22912-.99011.71875-1.09375zm-3.53125.75c.48964-.10363.95886.19787 1.0625.6875s-.19787.99011-.6875,1.09375-.99011-.22912-1.09375-.71875 .22912-.95886.71875-1.0625zm-3.53125.75c.48965-.10363.95886.19787 1.0625.6875s-.19787.99011-.6875,1.09375-.99011-.22912-1.09375-.71875 .22912-.95886.71875-1.0625zm-3.53125.75c.48965-.10366.95886.19787 1.0625.6875s-.19787.99011-.6875,1.09375-.99011-.22912-1.09375-.71875 .22912-.95886.71875-1.0625zm-3.53125.75c.48965-.10364.95886.19787 1.0625.6875s-.19787.99011-.6875,1.09375-.99011-.22912-1.09375-.71875 .22912-.95886.71875-1.0625zm20.28125.03125c.48964-.10364.99011.19787 1.09375.6875s-.22912.99011-.71875,1.09375-.95886-.22912-1.0625-.71875 .19787-.95886.6875-1.0625zm-23.8125.71875c.48965-.10364.95886.19787 1.0625.6875s-.19787.95886-.6875,1.0625-.99011-.19787-1.09375-.6875 .22912-.95886.71875-1.0625zm20.28125.03125c.48964-.10365.99011.19787 1.09375.6875s-.22912.95886-.71875,1.0625-.95886-.19787-1.0625-.6875 .19787-.95886.6875-1.0625zm-3.53125.75c.48963-.10364.99011.19787 1.09375.6875s-.19787.95886-.6875,1.0625-.99011-.19787-1.09375-.6875 .19787-.95886.6875-1.0625zm-3.5.71875c.48963-.10363.95886.22912 1.0625.71875s-.19787.95886-.6875,1.0625-.99011-.19787-1.09375-.6875 .22912-.99011.71875-1.09375zm-3.53125.75c.48963-.10363.95886.22912 1.0625.71875s-.19787.95886-.6875,1.0625-.99011-.19787-1.09375-.6875 .22912-.99011.71875-1.09375zm-3.53125.75c.48963-.10365.95886.22912 1.0625.71875s-.19787.95886-.6875,1.0625-.99011-.19787-1.09375-.6875 .22912-.99011.71875-1.09375zm16.375.40625c.48962-.10364.99011.22912 1.09375.71875s-.22912.95886-.71875,1.0625-.95886-.19787-1.0625-.6875 .19787-.99011.6875-1.09375zm-19.90625.34375c.48963-.10363.95886.22912 1.0625.71875s-.19787.95886-.6875,1.0625-.99011-.19787-1.09375-.6875 .22912-.99011.71875-1.09375zm16.375.40625c.48962-.10364.99011.22912 1.09375.71875s-.22912.95886-.71875,1.0625-.95886-.19787-1.0625-.6875 .19787-.99011.6875-1.09375zm-3.53125.75c.48962-.10363.99011.22912 1.09375.71875s-.22912.95886-.71875,1.0625-.95886-.19787-1.0625-.6875 .19787-.99011.6875-1.09375zm-3.53125.75c.48962-.10365.99011.22912 1.09375.71875s-.22912.95886-.71875,1.0625-.95886-.19787-1.0625-.6875 .19787-.99011.6875-1.09375zm-3.53125.75c.48962-.10363.99011.19787 1.09375.6875s-.22912.99011-.71875,1.09375-.95886-.22912-1.0625-.71875 .19787-.95886.6875-1.0625zm16.5625.15625c.48963-.10365.95886.19787 1.0625.6875s-.19787.95886-.6875,1.0625-.95886-.19787-1.0625-.6875 .19787-.95886.6875-1.0625zm-20.09375.59375c.48962-.10363.99011.19787 1.09375.6875s-.22912.99011-.71875,1.09375-.95886-.22912-1.0625-.71875 .19787-.95886.6875-1.0625zm16.5625.125c.48962-.10364.95886.22912 1.0625.71875s-.19787.95886-.6875,1.0625-.95886-.19787-1.0625-.6875 .19787-.99011.6875-1.09375zm-20.09375.625c.48962-.10364.99011.19787 1.09375.6875s-.22912.99011-.71875,1.09375-.95886-.22912-1.0625-.71875 .19787-.95886.6875-1.0625zm16.5625.125c.48962-.10364.95886.22912 1.0625.71875s-.19787.95886-.6875,1.0625-.95886-.19787-1.0625-.6875 .19787-.99011.6875-1.09375zm-3.53125.75c.48962-.10365.95886.22912 1.0625.71875s-.19787.95886-.6875,1.0625-.95886-.19787-1.0625-.6875 .19787-.99011.6875-1.09375zm-3.53125.75c.48962-.10364.99011.22912 1.09375.71875s-.22912.95886-.71875,1.0625-.95886-.19787-1.0625-.6875 .19787-.99011.6875-1.09375zm-3.53125.75c.48963-.10364.99011.19787 1.09375.6875s-.22912.99011-.71875,1.09375-.95886-.19787-1.0625-.6875 .19787-.99011.6875-1.09375zm-3.53125.75c.48963-.10363.99011.19787 1.09375.6875s-.22912.99011-.71875,1.09375-.95886-.22912-1.0625-.71875 .19787-.95886.6875-1.0625zm20.375.3125c.48963-.10365.95886.19787 1.0625.6875s-.19787.95886-.6875,1.0625-.99011-.19787-1.09375-.6875 .22912-.95886.71875-1.0625zm-23.90625.4375c.48962-.10365.99011.19787 1.09375.6875s-.22912.99011-.71875,1.09375-.95886-.22912-1.0625-.71875 .19787-.95886.6875-1.0625zm20.375.3125c.48963-.10365.95886.19787 1.0625.6875s-.19787.95886-.6875,1.0625-.99011-.19787-1.09375-.6875 .22912-.95886.71875-1.0625zm-3.53125.71875c.48963-.10363.95886.22912 1.0625.71875s-.19787.95886-.6875,1.0625-.99011-.19787-1.09375-.6875 .22912-.99011.71875-1.09375zm-3.53125.75c.48964-.10366.95886.22912 1.0625.71875s-.19787.95886-.6875,1.0625-.99011-.19787-1.09375-.6875 .22912-.99011.71875-1.09375zm-3.53125.75c.48964-.10365.95886.22912 1.0625.71875s-.19787.95886-.6875,1.0625-.99011-.19787-1.09375-.6875 .22912-.99011.71875-1.09375zm-3.53125.75c.48963-.10363.95886.22912 1.0625.71875s-.19787.95886-.6875,1.0625-.95886-.19787-1.0625-.6875 .19787-.99011.6875-1.09375zm-3.53125.75c.48963-.10365.95886.19787 1.0625.6875s-.19787.99011-.6875,1.09375-.95886-.19787-1.0625-.6875 .19787-.99011.6875-1.09375zm20.34375.3125c.48964-.10363.95886.19787 1.0625.6875s-.19787.99011-.6875,1.09375-.99011-.22912-1.09375-.71875 .22912-.95886.71875-1.0625zm-23.875.4375c.48963-.10365.95886.19787 1.0625.6875s-.19787.99011-.6875,1.09375-.95886-.22912-1.0625-.71875 .19787-.95886.6875-1.0625zm20.34375.3125c.48964-.10364.95886.19787 1.0625.6875s-.19787.99011-.6875,1.09375-.99011-.22912-1.09375-.71875 .22912-.95886.71875-1.0625zm-3.53125.75c.48964-.10364.95886.19787 1.0625.6875s-.19787.95886-.6875,1.0625-.99011-.19787-1.09375-.6875 .22912-.95886.71875-1.0625zm-3.53125.75c.48964-.10363.95886.19787 1.0625.6875s-.19787.95886-.6875,1.0625-.95886-.19787-1.0625-.6875 .19787-.95886.6875-1.0625zm-3.53125.75c.48965-.10364.95886.19787 1.0625.6875s-.19787.95886-.6875,1.0625-.95886-.19787-1.0625-.6875 .19787-.95886.6875-1.0625zm-3.53125.71875c.48964-.10364.95886.22912 1.0625.71875s-.19787.95886-.6875,1.0625-.95886-.19787-1.0625-.6875 .19787-.99011.6875-1.09375zm-3.53125.75c.48964-.10363.95886.22912 1.0625.71875s-.19787.95886-.6875,1.0625-.95886-.19787-1.0625-.6875 .19787-.99011.6875-1.09375zm20.6875.25c.48963-.10365.95886.19787 1.0625.6875s-.19787.99011-.6875,1.09375-.99011-.22912-1.09375-.71875 .22912-.95886.71875-1.0625zm-3.53125.75c.48963-.10364.95886.19787 1.0625.6875s-.19787.99011-.6875,1.09375-.99011-.22912-1.09375-.71875 .22912-.95886.71875-1.0625zm-3.53125.75c.48963-.10365.95886.19787 1.0625.6875s-.19787.99011-.6875,1.09375-.99011-.22912-1.09375-.71875 .22912-.95886.71875-1.0625zm-3.53125.75c.48962-.10365.95886.19787 1.0625.6875s-.19787.99011-.6875,1.09375-.99011-.22912-1.09375-.71875 .22912-.95886.71875-1.0625zm-3.53125.75c.48962-.10364.95886.19787 1.0625.6875s-.19787.95886-.6875,1.0625-.95886-.19787-1.0625-.6875 .19787-.95886.6875-1.0625zm-3.53125.75c.48962-.10363.95886.19787 1.0625.6875s-.19787.95886-.6875,1.0625-.95886-.19787-1.0625-.6875 .19787-.95886.6875-1.0625zm-3.53125.71875c.48963-.10363.95886.22912 1.0625.71875s-.19787.95886-.6875,1.0625-.95886-.19787-1.0625-.6875 .19787-.99011.6875-1.09375zm20.34375.3125c.48964-.10365.95886.22912 1.0625.71875s-.19787.95886-.6875,1.0625-.99011-.19787-1.09375-.6875 .22912-.99011.71875-1.09375zm-3.53125.75c.48964-.10365.95886.22912 1.0625.71875s-.19787.95886-.6875,1.0625-.99011-.19787-1.09375-.6875 .22912-.99011.71875-1.09375zm-3.53125.75c.48964-.10365.95886.19787 1.0625.6875s-.19787.99011-.6875,1.09375-.99011-.22912-1.09375-.71875 .22912-.95886.71875-1.0625zm-3.53125.75c.48963-.10363.95886.19787 1.0625.6875s-.19787.99011-.6875,1.09375-.95886-.22912-1.0625-.71875 .19787-.95886.6875-1.0625zm-3.53125.75c.48963-.10363.95886.19787 1.0625.6875s-.19787.99011-.6875,1.09375-.95886-.22912-1.0625-.71875 .19787-.95886.6875-1.0625zm-3.53125.75c.48963-.10365.95886.19787 1.0625.6875s-.19787.99011-.6875,1.09375-.95886-.22912-1.0625-.71875 .19787-.95886.6875-1.0625zm16.78125.78125c.48962-.10365.95886.19787 1.0625.6875s-.19787.95886-.6875,1.0625-.99011-.19787-1.09375-.6875 .22912-.95886.71875-1.0625zm-3.53125.75c.48962-.10365.95886.19787 1.0625.6875s-.19787.95886-.6875,1.0625-.99011-.19787-1.09375-.6875 .22912-.95886.71875-1.0625zm-3.53125.75c.48962-.10364.95886.19787 1.0625.6875s-.19787.95886-.6875,1.0625-.99011-.19787-1.09375-.6875 .22912-.95886.71875-1.0625zm-3.53125.71875c.48965-.10365.95886.22912 1.0625.71875s-.19787.95886-.6875,1.0625-.99011-.19787-1.09375-.6875 .22912-.99011.71875-1.09375z" fill="#db9275" stroke="#925e4b" stroke-linecap="round" stroke-linejoin="round" stroke-width=".2"/>
  <path d="m344.76 384.77h1.1398a9.3439 2.5254 0 0 1 9.3439 2.5254v27.272a9.3439 2.5254 0 0 1 -9.3439 2.5254h-1.1398a9.3439 2.5254 0 0 1 -9.3439 -2.5254v-27.272a9.3439 2.5254 0 0 1 9.3439 -2.5254" fill="#c47f67"/>
  <path d="m346.29562,384.78654c-.48963.10364-.79113.57287-.6875,1.0625s.57288.79113 1.0625.6875 .79114-.57288.6875-1.0625-.57284-.79114-1.0625-.6875zm2.84375.28125c.00189.01075-.00228.02048 0,.03125 .10364.48963.57288.79114 1.0625.6875 .30063-.06363.4852-.27187.59375-.53125-.49949-.08965-1.09484-.12484-1.65625-.1875zm-6.375.4375c-.48963.10364-.79113.60411-.6875,1.09375s.57288.79114 1.0625.6875 .79114-.57287.6875-1.0625-.57284-.8224-1.0625-.71875zm-3.53125.75c-.48963.10364-.79113.60411-.6875,1.09375s.57288.79114 1.0625.6875 .82239-.57287.71875-1.0625-.60409-.82241-1.09375-.71875zm-3.53125.75c-.11024.02333-.16131.12858-.25.1875-.00068.01263-.03125.01857-.03125.03125v1.4375c.18702.1119.42221.17453.65625.125 .48963-.10364.82242-.57289.71875-1.0625s-.6041-.8224-1.09375-.71875zm16.78125.78125c-.48963.10364-.79114.6041-.6875,1.09375s.57287.79114 1.0625.6875 .79116-.57287.6875-1.0625-.57286-.82241-1.0625-.71875zm-3.53125.75c-.48963.10364-.79114.57287-.6875,1.0625s.57287.82238 1.0625.71875 .79115-.60413.6875-1.09375-.57286-.79114-1.0625-.6875zm-3.53125.75c-.48963.10364-.79115.57285-.6875,1.0625s.57287.82238 1.0625.71875 .79115-.60413.6875-1.09375-.57286-.79116-1.0625-.6875zm-3.53125.75c-.48963.10364-.79114.57285-.6875,1.0625s.57287.82239 1.0625.71875 .79116-.60412.6875-1.09375-.57285-.79116-1.0625-.6875zm-3.53125.75c-.48963.10364-.79114.57286-.6875,1.0625s.57287.82237 1.0625.71875 .79116-.60411.6875-1.09375-.57285-.79115-1.0625-.6875zm16.40625.40625c-.48963.10364-.82237.57285-.71875,1.0625s.60414.82238 1.09375.71875c.03973-.00841.05662-.04908.09375-.0625v-1.625c-.15415-.0567-.29358-.13084-.46875-.09375zm-19.34375.46875v1.46875c.32556-.18855.55181-.51392.46875-.90625-.05658-.26731-.2504-.44265-.46875-.5625zm15.8125.28125c-.48963.10364-.82237.57284-.71875,1.0625s.60414.82238 1.09375.71875 .79114-.60413.6875-1.09375-.57287-.79114-1.0625-.6875zm-3.53125.75c-.48963.10364-.82238.57285-.71875,1.0625s.60414.79114 1.09375.6875 .79114-.57287.6875-1.0625-.57287-.79116-1.0625-.6875zm-3.53125.75c-.48963.10364-.82238.57286-.71875,1.0625s.60413.79112 1.09375.6875 .79114-.57286.6875-1.0625-.57287-.79115-1.0625-.6875zm-3.53125.75c-.48963.10364-.82238.57287-.71875,1.0625s.60413.79113 1.09375.6875 .79114-.57289.6875-1.0625-.57287-.79114-1.0625-.6875zm-3.53125.71875c-.48963.10364-.82237.6041-.71875,1.09375s.60414.79114 1.09375.6875 .79115-.57287.6875-1.0625-.57286-.82241-1.0625-.71875zm16.5.28125c-.48963.10364-.82239.60411-.71875,1.09375s.60412.79112 1.09375.6875 .79116-.57289.6875-1.0625-.57285-.8224-1.0625-.71875zm-3.53125.75c-.48963.10364-.82239.60412-.71875,1.09375s.60412.79113 1.09375.6875 .79116-.57288.6875-1.0625-.57285-.82239-1.0625-.71875zm-3.53125.75c-.48963.10364-.82239.6041-.71875,1.09375s.60412.79113 1.09375.6875 .79116-.57288.6875-1.0625-.57285-.82241-1.0625-.71875zm-3.53125.75c-.48963.10364-.82239.6041-.71875,1.09375s.60412.79114 1.09375.6875 .79116-.57287.6875-1.0625-.57285-.82241-1.0625-.71875zm-3.53125.75c-.48963.10364-.79114.60412-.6875,1.09375s.57287.79113 1.0625.6875 .79116-.60413.6875-1.09375-.57286-.79114-1.0625-.6875zm-3.53125.75c-.22912.0485-.40675.17051-.53125.34375v.96875c.19113.32509.51939.55064.90625.46875 .48963-.10364.79115-.60412.6875-1.09375s-.57286-.79116-1.0625-.6875zm16.84375,1.0625c-.48963.10364-.82238.57286-.71875,1.0625s.60413.79115 1.09375.6875 .79114-.57287.6875-1.0625-.57284-.79115-1.0625-.6875zm-3.53125.71875c-.48963.10364-.82238.60409-.71875,1.09375s.60413.79113 1.09375.6875 .79114-.57288.6875-1.0625-.57284-.82239-1.0625-.71875zm-3.53125.75c-.48963.10364-.82238.60409-.71875,1.09375s.60413.79113 1.09375.6875 .79116-.57288.6875-1.0625-.57285-.82239-1.0625-.71875zm-3.53125.75c-.48963.10364-.82238.60411-.71875,1.09375s.60413.79112 1.09375.6875 .79116-.57286.6875-1.0625-.57285-.8224-1.0625-.71875zm-3.53125.75c-.48963.10364-.82239.60412-.71875,1.09375s.60412.79112 1.09375.6875 .79116-.57289.6875-1.0625-.57285-.82239-1.0625-.71875zm-3.25.8125v1.6875c.03424-.00336.05948.0385.09375.03125 .48963-.10364.79116-.60413.6875-1.09375-.0813-.3841-.41662-.57721-.78125-.625zm19.8125.40625c-.32509.19113-.55062.51938-.46875.90625 .05638.26636.24312.46524.46875.59375v-1.5zm-3.28125.59375c-.48963.10364-.82237.57286-.71875,1.0625s.60414.82237 1.09375.71875 .79115-.60411.6875-1.09375-.57286-.79115-1.0625-.6875zm-3.53125.75c-.48963.10364-.82237.57286-.71875,1.0625s.60414.79112 1.09375.6875 .79115-.57286.6875-1.0625-.57286-.79115-1.0625-.6875zm-3.53125.75c-.48963.10364-.82237.57285-.71875,1.0625s.60414.79113 1.09375.6875 .79114-.57288.6875-1.0625-.57287-.79116-1.0625-.6875zm-3.53125.75c-.48963.10364-.82237.57285-.71875,1.0625s.60414.79114 1.09375.6875 .79114-.57287.6875-1.0625-.57287-.79116-1.0625-.6875zm-3.53125.71875c-.48963.10364-.82238.60411-.71875,1.09375s.60414.79112 1.09375.6875 .79114-.57286.6875-1.0625-.57287-.8224-1.0625-.71875zm17.125,1c-.48963.10364-.79114.57286-.6875,1.0625 .09411.44458.52549.71083.96875.6875v-1.6875c-.09822-.01114-.18038-.08385-.28125-.0625zm-3.5.75c-.48963.10364-.82239.57287-.71875,1.0625s.60412.82237 1.09375.71875 .79115-.60414.6875-1.09375-.57286-.79114-1.0625-.6875zm-3.53125.75c-.48963.10364-.82239.57284-.71875,1.0625s.60412.82238 1.09375.71875 .79116-.60413.6875-1.09375-.57285-.79114-1.0625-.6875zm-3.53125.75c-.48963.10364-.82239.57285-.71875,1.0625s.60412.82239 1.09375.71875 .79116-.60412.6875-1.09375-.57285-.79116-1.0625-.6875zm-3.53125.75c-.48963.10364-.82239.57287-.71875,1.0625s.60412.79112 1.09375.6875 .79116-.57289.6875-1.0625-.57285-.79114-1.0625-.6875zm-3.53125.75c-.48963.10364-.82239.57284-.71875,1.0625s.60412.79113 1.09375.6875 .79116-.57288.6875-1.0625-.57285-.79114-1.0625-.6875zm16.8125,1.03125c-.48963.10364-.82238.60412-.71875,1.09375s.60413.79112 1.09375.6875c.0973-.0206.13801-.10949.21875-.15625 .1847-.17751.3693-.33993.40625-.53125 .02739-.12321.09069-.24183.0625-.375-.10364-.48963-.57284-.82239-1.0625-.71875zm-3.53125.75c-.48963.10364-.82238.6041-.71875,1.09375s.60413.79114 1.09375.6875 .79116-.57287.6875-1.0625-.57285-.82241-1.0625-.71875zm-3.53125.75c-.48963.10364-.82238.57287-.71875,1.0625s.60413.82238 1.09375.71875 .79116-.60413.6875-1.09375-.57285-.79114-1.0625-.6875zm-3.53125.75c-.47886.10136-.80145.55344-.71875,1.03125 .61294.03962 1.03338.18212 1.6875.1875 .06824-.16878.13376-.34226.09375-.53125-.10364-.48963-.57284-.79114-1.0625-.6875z" fill="#bd7a62"/>
  <path d="m336.19 387.54c-0.33736 0.2594-0.62996 0.51887-0.62996 0.80963v26.251c0 1.3941 4.2189 2.5223 9.4494 2.5223 4.2871 0 7.759-0.76649 8.9189-1.8061-1.5652 0.81003-4.6556 1.3702-8.3221 1.3702-5.2305 1e-5 -9.4163-1.1282-9.4163-2.5223v-26.625z" fill="#a76c58"/>
  <path d="m354.71 414.34c0.33736-0.25941 0.62996-0.51887 0.62996-0.80963v-26.251c0-1.3941-4.2189-2.5223-9.4494-2.5223-4.2871 0-7.759 0.76648-8.9189 1.8061 1.5652-0.81004 4.6556-1.3702 8.3221-1.3702 5.2305-2e-5 9.4163 1.1282 9.4163 2.5223v26.625z" fill="#d7a08e"/>
 </g>
</svg>
